<svg id="visual" viewBox="0 0 960 90" width="960" height="90" xmlns="http://www.w3.org/2000/svg" xmlns:xlink="http://www.w3.org/1999/xlink" version="1.1"><path d="M0 14L87 14L87 9L175 9L175 10L262 10L262 16L349 16L349 7L436 7L436 15L524 15L524 7L611 7L611 13L698 13L698 15L785 15L785 8L873 8L873 15L960 15L960 7L960 0L960 0L873 0L873 0L785 0L785 0L698 0L698 0L611 0L611 0L524 0L524 0L436 0L436 0L349 0L349 0L262 0L262 0L175 0L175 0L87 0L87 0L0 0Z" fill="#00adb5"></path><path d="M0 34L87 34L87 18L175 18L175 22L262 22L262 27L349 27L349 33L436 33L436 24L524 24L524 16L611 16L611 23L698 23L698 26L785 26L785 25L873 25L873 32L960 32L960 18L960 5L960 13L873 13L873 6L785 6L785 13L698 13L698 11L611 11L611 5L524 5L524 13L436 13L436 5L349 5L349 14L262 14L262 8L175 8L175 7L87 7L87 12L0 12Z" fill="#1a889c"></path><path d="M0 51L87 51L87 27L175 27L175 39L262 39L262 35L349 35L349 41L436 41L436 41L524 41L524 27L611 27L611 38L698 38L698 36L785 36L785 39L873 39L873 48L960 48L960 28L960 16L960 30L873 30L873 23L785 23L785 24L698 24L698 21L611 21L611 14L524 14L524 22L436 22L436 31L349 31L349 25L262 25L262 20L175 20L175 16L87 16L87 32L0 32Z" fill="#2a657b"></path><path d="M0 68L87 68L87 73L175 73L175 77L262 77L262 63L349 63L349 59L436 59L436 64L524 64L524 64L611 64L611 73L698 73L698 55L785 55L785 66L873 66L873 64L960 64L960 50L960 26L960 46L873 46L873 37L785 37L785 34L698 34L698 36L611 36L611 25L524 25L524 39L436 39L436 39L349 39L349 33L262 33L262 37L175 37L175 25L87 25L87 49L0 49Z" fill="#2c4556"></path><path d="M0 91L87 91L87 91L175 91L175 91L262 91L262 91L349 91L349 91L436 91L436 91L524 91L524 91L611 91L611 91L698 91L698 91L785 91L785 91L873 91L873 91L960 91L960 91L960 48L960 62L873 62L873 64L785 64L785 53L698 53L698 71L611 71L611 62L524 62L524 62L436 62L436 57L349 57L349 61L262 61L262 75L175 75L175 71L87 71L87 66L0 66Z" fill="#222831"></path></svg>