<svg id="visual" viewBox="0 0 960 300" width="960" height="300" xmlns="http://www.w3.org/2000/svg" xmlns:xlink="http://www.w3.org/1999/xlink" version="1.1"><path d="M0 43L87 43L87 28L175 28L175 34L262 34L262 43L349 43L349 40L436 40L436 19L524 19L524 37L611 37L611 28L698 28L698 43L785 43L785 49L873 49L873 22L960 22L960 37L960 0L960 0L873 0L873 0L785 0L785 0L698 0L698 0L611 0L611 0L524 0L524 0L436 0L436 0L349 0L349 0L262 0L262 0L175 0L175 0L87 0L87 0L0 0Z" fill="#393e46"></path><path d="M0 166L87 166L87 76L175 76L175 139L262 139L262 100L349 100L349 127L436 127L436 94L524 94L524 91L611 91L611 91L698 91L698 106L785 106L785 109L873 109L873 82L960 82L960 127L960 35L960 20L873 20L873 47L785 47L785 41L698 41L698 26L611 26L611 35L524 35L524 17L436 17L436 38L349 38L349 41L262 41L262 32L175 32L175 26L87 26L87 41L0 41Z" fill="#333840"></path><path d="M0 229L87 229L87 166L175 166L175 199L262 199L262 172L349 172L349 190L436 190L436 211L524 211L524 184L611 184L611 214L698 214L698 229L785 229L785 211L873 211L873 199L960 199L960 208L960 125L960 80L873 80L873 107L785 107L785 104L698 104L698 89L611 89L611 89L524 89L524 92L436 92L436 125L349 125L349 98L262 98L262 137L175 137L175 74L87 74L87 164L0 164Z" fill="#2d333b"></path><path d="M0 274L87 274L87 223L175 223L175 247L262 247L262 229L349 229L349 238L436 238L436 265L524 265L524 223L611 223L611 247L698 247L698 271L785 271L785 235L873 235L873 256L960 256L960 262L960 206L960 197L873 197L873 209L785 209L785 227L698 227L698 212L611 212L611 182L524 182L524 209L436 209L436 188L349 188L349 170L262 170L262 197L175 197L175 164L87 164L87 227L0 227Z" fill="#272d36"></path><path d="M0 301L87 301L87 301L175 301L175 301L262 301L262 301L349 301L349 301L436 301L436 301L524 301L524 301L611 301L611 301L698 301L698 301L785 301L785 301L873 301L873 301L960 301L960 301L960 260L960 254L873 254L873 233L785 233L785 269L698 269L698 245L611 245L611 221L524 221L524 263L436 263L436 236L349 236L349 227L262 227L262 245L175 245L175 221L87 221L87 272L0 272Z" fill="#222831"></path></svg>