<svg id="visual" viewBox="0 0 960 300" width="960" height="300" xmlns="http://www.w3.org/2000/svg" xmlns:xlink="http://www.w3.org/1999/xlink" version="1.1"><path d="M0 40L87 40L87 79L175 79L175 40L262 40L262 28L349 28L349 61L436 61L436 43L524 43L524 31L611 31L611 70L698 70L698 52L785 52L785 43L873 43L873 67L960 67L960 52L960 0L960 0L873 0L873 0L785 0L785 0L698 0L698 0L611 0L611 0L524 0L524 0L436 0L436 0L349 0L349 0L262 0L262 0L175 0L175 0L87 0L87 0L0 0Z" fill="#222831"></path><path d="M0 88L87 88L87 97L175 97L175 70L262 70L262 73L349 73L349 100L436 100L436 70L524 70L524 70L611 70L611 109L698 109L698 103L785 103L785 64L873 64L873 112L960 112L960 73L960 50L960 65L873 65L873 41L785 41L785 50L698 50L698 68L611 68L611 29L524 29L524 41L436 41L436 59L349 59L349 26L262 26L262 38L175 38L175 77L87 77L87 38L0 38Z" fill="#4f545b"></path><path d="M0 127L87 127L87 136L175 136L175 118L262 118L262 115L349 115L349 154L436 154L436 115L524 115L524 97L611 97L611 169L698 169L698 157L785 157L785 94L873 94L873 145L960 145L960 133L960 71L960 110L873 110L873 62L785 62L785 101L698 101L698 107L611 107L611 68L524 68L524 68L436 68L436 98L349 98L349 71L262 71L262 68L175 68L175 95L87 95L87 86L0 86Z" fill="#818489"></path><path d="M0 247L87 247L87 235L175 235L175 184L262 184L262 169L349 169L349 244L436 244L436 244L524 244L524 193L611 193L611 217L698 217L698 238L785 238L785 193L873 193L873 217L960 217L960 190L960 131L960 143L873 143L873 92L785 92L785 155L698 155L698 167L611 167L611 95L524 95L524 113L436 113L436 152L349 152L349 113L262 113L262 116L175 116L175 134L87 134L87 125L0 125Z" fill="#b6b8ba"></path><path d="M0 301L87 301L87 301L175 301L175 301L262 301L262 301L349 301L349 301L436 301L436 301L524 301L524 301L611 301L611 301L698 301L698 301L785 301L785 301L873 301L873 301L960 301L960 301L960 188L960 215L873 215L873 191L785 191L785 236L698 236L698 215L611 215L611 191L524 191L524 242L436 242L436 242L349 242L349 167L262 167L262 182L175 182L175 233L87 233L87 245L0 245Z" fill="#eeeeee"></path></svg>