<svg id="visual" viewBox="0 0 960 300" width="960" height="300" xmlns="http://www.w3.org/2000/svg" xmlns:xlink="http://www.w3.org/1999/xlink" version="1.1"><path d="M0 55L87 55L87 55L175 55L175 34L262 34L262 22L349 22L349 31L436 31L436 58L524 58L524 58L611 58L611 49L698 49L698 19L785 19L785 34L873 34L873 46L960 46L960 61L960 0L960 0L873 0L873 0L785 0L785 0L698 0L698 0L611 0L611 0L524 0L524 0L436 0L436 0L349 0L349 0L262 0L262 0L175 0L175 0L87 0L87 0L0 0Z" fill="#eeeeee"></path><path d="M0 100L87 100L87 79L175 79L175 55L262 55L262 61L349 61L349 49L436 49L436 91L524 91L524 76L611 76L611 85L698 85L698 70L785 70L785 64L873 64L873 85L960 85L960 100L960 59L960 44L873 44L873 32L785 32L785 17L698 17L698 47L611 47L611 56L524 56L524 56L436 56L436 29L349 29L349 20L262 20L262 32L175 32L175 53L87 53L87 53L0 53Z" fill="#b6b8ba"></path><path d="M0 151L87 151L87 172L175 172L175 157L262 157L262 172L349 172L349 148L436 148L436 142L524 142L524 160L611 160L611 205L698 205L698 109L785 109L785 139L873 139L873 130L960 130L960 187L960 98L960 83L873 83L873 62L785 62L785 68L698 68L698 83L611 83L611 74L524 74L524 89L436 89L436 47L349 47L349 59L262 59L262 53L175 53L175 77L87 77L87 98L0 98Z" fill="#818489"></path><path d="M0 193L87 193L87 211L175 211L175 217L262 217L262 247L349 247L349 217L436 217L436 214L524 214L524 211L611 211L611 235L698 235L698 187L785 187L785 214L873 214L873 202L960 202L960 241L960 185L960 128L873 128L873 137L785 137L785 107L698 107L698 203L611 203L611 158L524 158L524 140L436 140L436 146L349 146L349 170L262 170L262 155L175 155L175 170L87 170L87 149L0 149Z" fill="#4f545b"></path><path d="M0 301L87 301L87 301L175 301L175 301L262 301L262 301L349 301L349 301L436 301L436 301L524 301L524 301L611 301L611 301L698 301L698 301L785 301L785 301L873 301L873 301L960 301L960 301L960 239L960 200L873 200L873 212L785 212L785 185L698 185L698 233L611 233L611 209L524 209L524 212L436 212L436 215L349 215L349 245L262 245L262 215L175 215L175 209L87 209L87 191L0 191Z" fill="#222831"></path></svg>